<svg width="48px" height="48px" viewBox="0 0 48 48" version="1.1" xmlns="http://www.w3.org/2000/svg">
  <g transform="translate(0 1)" fill="none" fill-rule="evenodd">
    <path
      d="M9.97596364,21.7095448 C8.96105455,18.197259 9.43487273,13.5504019 13.2468727,12.0781733 C17.0614182,10.604859 23.4996,8.16019238 26.4079636,17.1922495 C27.4905091,20.0892971 28.2654182,23.11084 25.7308727,26.0820781 C23.1930545,29.0536781 19.4719636,29.969659 16.4643273,29.2878305 C13.4548727,28.6045543 10.9926909,25.2214686 9.97596364,21.7095448 M22.8116,29.2624971 C25.2676,28.168821 27.5897818,26.5094876 29.2399636,24.5689543 C30.3657818,21.0555829 28.8705091,17.16004 27.7814182,14.3675829 C25.8868727,9.50756381 19.9090545,8.90354476 15.3919636,10.1995257 C15.0566909,10.2947067 14.7232364,10.4043638 14.3916,10.521259 C4.49014545,15.9436781 8.33232727,23.7329543 10.9348727,28.602021 C13.9563273,31.3955638 19.0206909,30.9511448 22.8116,29.2624971" fill="#E7C000"></path>
    <path
      d="M13.7785091,6.18687048 C14.1999636,5.92593714 14.6294182,5.67586095 15.0643273,5.44098476 C18.5810545,3.53519429 23.0108727,2.40243238 26.9526909,3.0343181 C19.3745091,-2.81949143 11.4712364,2.28481333 6.36723636,5.62012762 C3.31414545,7.61205143 1.9396,10.6448133 1.69014545,13.9399562 C3.24978182,10.0089467 6.60832727,6.74492762 13.7785091,6.18687048" fill="#E6402E"></path>
    <path
      d="M23.1105455,7.4962781 C23.9534545,7.82416381 24.7461818,8.23384 25.4672727,8.72277333 C29.02,11.1337829 30.564,16.8891543 30.1785455,22.1005829 C30.1425455,22.5880686 30.0829091,23.0827924 30.0047273,23.5778781 C30.9090909,22.2797257 31.5025455,20.8867543 31.636,19.4677257 C32.012,15.4603543 30.1563636,10.8435352 25.8069091,8.1422781 C25.5232727,7.96530667 25.2418182,7.8078781 24.9643636,7.66745905 C24.3370909,7.54224 23.7196364,7.48831619 23.1105455,7.4962781" fill="#A2D00C"></path>
    <path
      d="M4.49018182,25.2395276 C4.41636364,25.1081562 4.34254545,24.9811276 4.272,24.8475848 C2.52254545,21.5998514 1.41054545,17.6069562 1.69018182,13.9397752 C0.292363636,17.4578514 0.336,21.5082895 0.377818182,24.6289943 C0.465818182,31.0213181 6.57854545,34.6030895 12.6498182,35.6620229 C8.40254545,33.1145752 5.688,29.2581181 4.49018182,25.2395276" fill="#A2D00C"></path>
    <path
      d="M31.6361091,19.4677619 C31.5026545,20.8867905 30.9092,22.2797619 30.0048364,23.5775524 C29.5230182,26.5549429 28.2593818,29.5782952 26.1481091,31.463819 C30.4957455,29.3539143 34.2586545,25.6147143 34.6615636,21.6019143 C35.0993818,17.2909048 33.1662909,12.2488476 28.5604727,9.1998 C27.3266545,8.38298095 26.1284727,7.8998381 24.9641091,7.66749524 C25.2419273,7.80791429 25.5230182,7.96534286 25.8070182,8.14231429 C30.1564727,10.8435714 32.0117455,15.4603905 31.6361091,19.4677619" fill="#A2D00C"></path>
    <path
      d="M4.27214545,24.8475848 C4.34232727,24.9811276 4.41614545,25.1081562 4.49032727,25.2395276 C4.00887273,23.6337562 3.76269091,22.0051848 3.76705455,20.4254705 C3.77723636,15.0334514 8.27869091,9.56905143 13.7786909,6.18668952 C6.60850909,6.74474667 3.2496,10.0087657 1.68996364,13.9397752 C1.41069091,17.6069562 2.52232727,21.5998514 4.27214545,24.8475848" fill="#A2D00C"></path>
    <path
      d="M21.1993455,31.1363676 C26.1440727,29.5602724 28.4091636,27.171339 29.2397091,24.5692438 C27.5898909,26.5094152 25.2677091,28.1687486 22.8117091,29.2624248 C19.0208,30.9510724 13.9564364,31.3954914 10.9346182,28.6019486 C10.9949818,28.7137771 11.0564364,28.8248819 11.1146182,28.9323676 C12.0309818,30.637301 13.3804364,31.7563105 14.9524364,32.4182343 C17.0593455,32.5315105 19.1549818,31.8938343 21.1993455,31.1363676" fill="#D53615"></path>
    <path
      d="M27.7813455,14.3675467 C28.8704364,17.1600038 30.3657091,21.0555467 29.2398909,24.5689181 C29.5155273,24.2479086 29.7686182,23.9160419 30.0046182,23.577661 C30.0828,23.0829371 30.1424364,22.5882133 30.1784364,22.1007276 C30.5638909,16.889299 29.0198909,11.1335657 25.4675273,8.72255619 C24.7460727,8.23398476 23.9537091,7.82430857 23.1104364,7.49642286 C20.6202545,7.5221181 18.2657091,8.55173714 15.9933455,9.72032762 C15.4220727,9.98089905 14.8886182,10.247261 14.3915273,10.5212229 C14.7231636,10.4043276 15.0566182,10.2946705 15.3918909,10.1994895 C19.9093455,8.90350857 25.8868,9.50752762 27.7813455,14.3675467" fill="#8EAA28"></path>
    <path
      d="M30.0047273,23.5777333 C29.7687273,23.9161143 29.5152727,24.247981 29.2396364,24.5689905 C28.4090909,27.1714476 26.144,29.560019 21.1992727,31.1364762 C19.1549091,31.8939429 17.0592727,32.531619 14.9523636,32.4183429 C18.06,33.7262667 22.0269091,33.2351619 25.176,31.9076952 C25.5029091,31.7708952 25.8269091,31.6217905 26.1483636,31.464 C28.2592727,29.5781143 29.5232727,26.5551238 30.0047273,23.5777333" fill="#8EAA28"></path>
    <path
      d="M34.2128364,7.57405143 C32.4052,4.87894667 29.8070182,3.49357524 26.9528364,3.0343181 C28.9401091,4.57060381 30.9055636,6.85820381 32.7950182,10.1319943 C35.9841091,15.1204895 38.6561091,20.4629276 35.1895636,26.9826419 C31.7204727,33.4998229 25.2175636,36.638261 19.3721091,36.5108705 C18.3775636,36.4909657 17.3793818,36.3121848 16.3884727,36.0081848 C15.8852,35.9980514 15.3841091,35.9763371 14.8866545,35.9401467 C14.1499273,35.8869467 13.4012,35.7914038 12.6499273,35.6618419 C12.9415636,35.8370038 13.2335636,36.0121657 13.5408364,36.1728514 C20.0833818,39.6380895 25.3433818,36.995461 30.2361091,33.8378419 C45.7197455,24.8517467 38.5204727,13.9935181 34.2128364,7.57405143" fill="#00A2D2"></path>
    <path
      d="M6.78243636,20.3258743 C6.78425455,20.208979 6.78425455,20.1014933 6.78898182,19.9842362 C6.78898182,18.453741 6.84643636,16.9214362 7.11407273,15.458979 C7.07443636,15.512179 7.03225455,15.5639314 6.99225455,15.6171314 C6.44898182,17.1935886 6.46316364,18.7921219 6.78243636,20.3258743" fill="#00A2D2"></path>
    <path
      d="M6.78243636,20.3258743 C6.46316364,18.7921219 6.44898182,17.1935886 6.99225455,15.6171314 C6.34534545,16.5059695 5.87189091,17.4599505 5.63989091,18.4656838 C4.79116364,22.1705029 5.87189091,26.722179 9.3988,29.9402362 C7.69916364,28.006579 6.62643636,24.9966171 6.78243636,20.3258743" fill="#006F7E"></path>
    <path
      d="M15.0644,5.44112952 C14.6294909,5.67564381 14.2000364,5.9260819 13.7785818,6.18701524 C14.9509455,6.09545333 16.2244,6.07301524 17.6105818,6.1388819 C23.2884,6.1388819 28.9942182,6.72733905 32.4953091,12.72772 C35.9956727,18.7284629 35.1971273,25.4142914 32.0960364,29.9402724 C29.2240364,34.1296819 22.6654909,36.1252248 16.3887636,36.0083295 C17.3793091,36.3123295 18.3774909,36.4911105 19.3724,36.5110152 C25.2174909,36.6380438 31.7204,33.4996057 35.1894909,26.9824248 C38.6560364,20.4630724 35.9840364,15.1202724 32.7949455,10.132139 C30.9054909,6.85834857 28.9400364,4.57074857 26.9527636,3.03446286 C23.0109455,2.40257714 18.5811273,3.53497714 15.0644,5.44112952" fill="#006F7E"></path>
    <path
      d="M16.3886182,36.0083295 C11.7053455,34.5650533 7.25989091,30.1946914 4.49007273,25.2394914 C5.68789091,29.2584438 8.40243636,33.114539 12.6500727,35.6619867 C13.4009818,35.7911867 14.1500727,35.8870914 14.8864364,35.9402914 C15.3838909,35.9764819 15.8849818,35.9981962 16.3886182,36.0083295" fill="#00A659"></path>
    <path
      d="M24.9642545,7.66735048 C23.3006182,6.82881714 21.7111636,6.59575048 20.1769818,6.74087429 C21.2013455,6.87622667 22.1882545,7.13245524 23.1104364,7.49616952 C23.7195273,7.48820762 24.3369818,7.54213143 24.9642545,7.66735048" fill="#00934F"></path>
    <path
      d="M5.64003636,18.4658286 C5.87203636,17.4600952 6.34512727,16.5061143 6.9924,15.6172762 C7.04803636,15.4569524 7.11021818,15.2933714 7.17785455,15.1326857 C7.72330909,12.5048952 9.00549091,10.1217524 11.9611273,8.41500952 C14.6647636,6.85013333 17.5429455,6.39666667 20.1771273,6.7412 C21.7109455,6.59571429 23.3004,6.82878095 24.9644,7.66731429 C26.1284,7.90001905 27.3269455,8.3831619 28.5604,9.19961905 C33.1662182,12.2486667 35.0996727,17.2910857 34.6618545,21.6020952 C34.2585818,25.6148952 30.4960364,29.3540952 26.1480364,31.464 C24.8564,32.6210095 23.2447636,33.3506095 21.3014909,33.3781143 C17.6945818,33.4266095 12.5040364,33.4700381 9.39894545,29.940381 C5.87203636,26.7219619 4.79130909,22.1702857 5.64003636,18.4658286 M32.0960364,29.940381 C35.1971273,25.4144 35.9956727,18.7285714 32.4953091,12.7278286 C28.9942182,6.72708571 23.2884,6.13862857 17.6105818,6.13862857 C16.2244,6.07312381 14.9509455,6.0952 13.7785818,6.1867619 C8.27858182,9.56912381 3.77712727,15.0335238 3.76730909,20.4255429 C3.76258182,22.0052571 4.00912727,23.6334667 4.49021818,25.2396 C7.26003636,30.1944381 11.7054909,34.5648 16.3887636,36.0084381 C22.6654909,36.1253333 29.2240364,34.1297905 32.0960364,29.940381" fill="#00A659"></path>
    <path
      d="M14.3914545,10.5212229 C11.4918182,11.5331086 8.77,13.2843657 7.114,15.4590514 C6.84636364,16.9215086 6.78890909,18.4538133 6.78890909,19.9839467 C6.78418182,20.1015657 6.78418182,20.2090514 6.78236364,20.3259467 C7.29,22.7789371 8.56963636,25.0723276 9.58236364,26.8814895 C9.96418182,27.55608 10.4209091,28.1253562 10.9347273,28.6019848 C8.33254545,23.7329181 4.49,15.9436419 14.3914545,10.5212229" fill="#00934F"></path>
    <path
      d="M14.9525091,32.4182343 C13.3805091,31.7563105 12.0310545,30.637301 11.1143273,28.9323676 C11.0565091,28.8248819 10.9946909,28.7137771 10.9346909,28.6019486 C10.4208727,28.12532 9.96414545,27.5560438 9.58232727,26.8814533 C8.5696,25.0722914 7.28996364,22.778901 6.78232727,20.3259105 C6.62669091,24.9966533 7.69905455,28.0066152 9.39905455,29.9402724 C9.52050909,30.051739 9.63869091,30.1646533 9.76414545,30.272139 C11.4856,31.7273581 13.2252364,32.3248629 14.9525091,32.4182343" fill="#006F7E"></path>
    <path
      d="M14.3914545,10.5212229 C14.8885455,10.247261 15.422,9.98089905 15.9932727,9.72032762 C18.2656364,8.55173714 20.6201818,7.5221181 23.1107273,7.49642286 C22.1881818,7.13270857 21.2016364,6.87648 20.1769091,6.74112762 C18.026,6.94777524 15.9834545,7.89596571 14.0096364,8.95743238 C10.1438182,10.8150895 8.09690909,12.9481562 7.17763636,15.1326133 C7.15618182,15.2419086 7.134,15.3512038 7.114,15.4590514 C8.77,13.2843657 11.4918182,11.5331086 14.3914545,10.5212229" fill="#00934F"></path>
    <path
      d="M14.0097091,8.95736 C15.9835273,7.89589333 18.0260727,6.94770286 20.1769818,6.74105524 C17.5431636,6.39688381 14.6649818,6.85035048 11.9609818,8.41486476 C9.00534545,10.1219695 7.72316364,12.5051124 7.17770909,15.132541 C8.09698182,12.9480838 10.1438909,10.815379 14.0097091,8.95736" fill="#00934F"></path>
    <path
      d="M21.3016,33.3781505 C23.2448727,33.3506457 24.8561455,32.6210457 26.1481455,31.4640362 C25.8266909,31.6214648 25.5030545,31.7709314 25.1757818,31.9077314 C22.0266909,33.2348362 18.0601455,33.7263029 14.9525091,32.418379 C13.2252364,32.3250076 11.4856,31.727141 9.76414545,30.2722838 C9.63869091,30.1647981 9.52087273,30.0518838 9.39905455,29.9404171 C12.5041455,33.4700743 17.6946909,33.4266457 21.3016,33.3781505" fill="#00934F"></path>
  </g>
</svg>
